Coordinates
version=1
nRows=7
nColumns=40
inDegrees=yes

Units are S.I. units (second, meters, Newtons, ...)
Angles are in degrees.

endheader
time	pelvis_tilt	pelvis_list	pelvis_rotation	pelvis_tx	pelvis_ty	pelvis_tz	hip_flexion_r	hip_adduction_r	hip_rotation_r	knee_angle_r	knee_angle_r_beta	ankle_angle_r	subtalar_angle_r	mtp_angle_r	hip_flexion_l	hip_adduction_l	hip_rotation_l	knee_angle_l	knee_angle_l_beta	ankle_angle_l	subtalar_angle_l	mtp_angle_l	lumbar_extension	lumbar_bending	lumbar_rotation	arm_flex_r	arm_add_r	arm_rot_r	elbow_flex_r	pro_sup_r	wrist_flex_r	wrist_dev_r	arm_flex_l	arm_add_l	arm_rot_l	elbow_flex_l	pro_sup_l	wrist_flex_l	wrist_dev_l
     43.06842857	     -5.29713755	     -2.85382961	     -1.05748208	      1.06246548	      0.90626610	      0.42007850	     26.12748810	     -5.90624723	     -0.89341092	     68.59306239	     68.59306239	      3.69616335	    -18.34618230	      4.76426466	     21.74025565	     -0.35517378	      0.98881697	     35.80196426	     35.80196426	     21.57484687	    -17.98180583	      9.20989421	    -12.60663738	      5.63341150	      1.84773192	     -0.53521938	    -13.82250249	     -3.64675568	     22.63143244	     47.05219583	      0.00000000	      0.00000000	     21.29732323	    -15.44665671	     13.85866491	     59.85006160	     46.05681562	      0.00000000	      0.00000000
     43.08935714	     -5.25676579	     -2.82160935	     -1.57297492	      1.06229274	      0.90793345	      0.42041035	     27.96419760	     -5.85577033	     -0.72708896	     69.35158364	     69.35158364	      4.38684278	    -18.68190255	      7.48886678	     20.88137353	     -0.46651444	      0.52757484	     34.91970144	     34.91970144	     21.45656119	    -17.95620100	      9.06187797	    -12.84236382	      5.66754532	      1.57858758	     -3.57968118	    -13.64527710	     -4.21916911	     22.82551811	     47.04894787	      0.00000000	      0.00000000	     22.86171484	    -16.00883914	     12.90562632	     62.07009400	     46.20765061	      0.00000000	      0.00000000
     43.11028571	     -5.31712547	     -2.78595667	     -2.10979163	      1.06196610	      0.91014845	      0.42123640	     29.64163702	     -5.74886849	     -0.48607261	     69.14346798	     69.14346798	      5.46199422	    -18.82886551	      9.47460995	     19.94252003	     -0.61230782	      0.01364923	     33.65487853	     33.65487853	     21.11401301	    -17.85797706	      8.76312677	    -12.99731211	      5.66077258	      1.10643236	     -6.31940758	    -13.37196593	     -5.15429517	     23.79869446	     47.03573489	      0.00000000	      0.00000000	     24.03242787	    -16.83757355	     11.63846270	     64.73487614	     46.39436168	      0.00000000	      0.00000000
     43.13121429	     -5.37198554	     -2.79743688	     -2.71051919	      1.06153950	      0.91297767	      0.42253244	     30.94627323	     -5.57863578	     -0.21310917	     67.81527137	     67.81527137	      6.27884014	    -18.87411818	      9.50535384	     18.85530784	     -0.82180531	     -0.51111766	     32.12780636	     32.12780636	     20.82740919	    -17.69768150	      8.94462046	    -13.16510516	      5.67960579	      1.03982109	     -8.53395675	    -13.13984522	     -5.43303934	     23.59957685	     47.03744088	      0.00000000	      0.00000000	     25.65202440	    -17.32420231	     10.76456678	     66.63496810	     46.51073492	      0.00000000	      0.00000000
     43.15214286	     -5.53505342	     -2.90580960	     -3.30554041	      1.06100442	      0.91589704	      0.42423284	     31.98405361	     -5.29702324	      0.03073383	     65.45310560	     65.45310560	      7.04741716	    -18.81533814	      8.56847927	     17.80279926	     -1.17782111	     -1.10637545	     30.41634426	     30.41634426	     20.12079855	    -17.51526559	      8.26573748	    -13.34328458	      5.80878863	      0.59120345	    -10.85215052	    -12.95750173	     -6.75474117	     25.68349928	     46.99822646	      0.00000000	      0.00000000	     26.26513134	    -18.21974523	      8.88939893	     70.46365442	     46.75243037	      0.00000000	      0.00000000
     43.17307143	     -5.72475578	     -3.03304476	     -3.90089236	      1.06044929	      0.91887799	      0.42624375	     32.60255496	     -5.00756018	      0.29494784	     62.02611533	     62.02611533	      7.41894037	    -18.61497935	      6.10597567	     16.73190698	     -1.55124460	     -1.69674796	     28.62759349	     28.62759349	     19.47939755	    -17.24738015	      7.86367411	    -13.47728288	      5.94393926	      0.38874743	    -12.67259909	    -12.76808969	     -7.71241403	     27.03301966	     46.95776798	      0.00000000	      0.00000000	     27.21012880	    -18.85887961	      7.33981054	     73.58676763	     46.96042640	      0.00000000	      0.00000000
     43.19400000	     -5.94159255	     -3.16687297	     -4.48358775	      1.05991969	      0.92160164	      0.42854163	     32.79653891	     -4.75482981	      0.52010371	     57.62864692	     57.62864692	      7.24304719	    -18.23347187	      2.18309555	     15.70926815	     -1.93780722	     -2.32204617	     26.88272887	     26.88272887	     18.84098540	    -16.95935257	      7.49769161	    -13.59668423	      6.07677375	      0.22738851	    -14.15488531	    -12.61770135	     -8.49183000	     28.50937539	     46.88981858	      0.00000000	      0.00000000	     28.08850250	    -19.45548545	      5.83898008	     76.70672482	     47.16878315	      0.00000000	      0.00000000
